<?xml version="1.0" encoding="UTF-8" standalone="no"?>
<!-- Created with Inkscape (http://www.inkscape.org/) -->

<svg
   width="297mm"
   height="210mm"
   viewBox="0 0 297 210"
   version="1.1"
   id="svg5"
   inkscape:version="1.1.2 (b8e25be833, 2022-02-05)"
   sodipodi:docname="laberinto.svg"
   xmlns:inkscape="http://www.inkscape.org/namespaces/inkscape"
   xmlns:sodipodi="http://sodipodi.sourceforge.net/DTD/sodipodi-0.dtd"
   xmlns="http://www.w3.org/2000/svg"
   xmlns:svg="http://www.w3.org/2000/svg">
  <sodipodi:namedview
     id="namedview7"
     pagecolor="#ffffff"
     bordercolor="#666666"
     borderopacity="1.0"
     inkscape:pageshadow="2"
     inkscape:pageopacity="0.0"
     inkscape:pagecheckerboard="0"
     inkscape:document-units="mm"
     showgrid="false"
     inkscape:zoom="0.125"
     inkscape:cx="992"
     inkscape:cy="-376"
     inkscape:window-width="1920"
     inkscape:window-height="1017"
     inkscape:window-x="-8"
     inkscape:window-y="-8"
     inkscape:window-maximized="1"
     inkscape:current-layer="layer1" />
  <defs
     id="defs2" />
  <g
     inkscape:label="Layer 1"
     inkscape:groupmode="layer"
     id="layer1">
    <path
       style="fill:#000000;stroke:#000000;stroke-width:0.365;stroke-miterlimit:2.08333;stroke-dasharray:none;stroke-opacity:1"
       d="m 174.21499,163.54831 c -0.0609,-0.0606 -0.1108,-11.87759 -0.1108,-26.2599 0,-23.06774 0.0468,-26.14965 0.39687,-26.14965 0.34543,0 0.39688,1.23472 0.39688,9.525 v 9.525 h 1.84874 1.84874 l 0.0695,-9.43688 c 0.0535,-7.26424 0.14563,-9.46224 0.40022,-9.54704 0.26184,-0.0872 0.33073,2.84291 0.33073,14.06708 v 14.17726 h 1.98437 1.98438 v -4.63021 c 0,-3.93935 0.0592,-4.63021 0.39687,-4.63021 0.33885,0 0.39688,0.73496 0.39688,5.02708 v 5.02709 h -2.77813 -2.77812 v -4.7625 -4.7625 h -1.85209 -1.85208 v 9.12812 9.12813 h 1.85208 1.85209 v -2.38125 -2.38125 h 7.14375 7.14375 v -1.98438 -1.98437 h -2.38125 c -1.94028,0 -2.38125,-0.0735 -2.38125,-0.39688 0,-0.32338 0.44097,-0.39687 2.38125,-0.39687 h 2.38125 v -11.77396 -11.77396 h 4.6199 4.6199 l 0.0764,-2.3151 0.0765,-2.31511 2.3151,-0.0764 2.31511,-0.0765 V 109.14408 107.17 h -4.36563 -4.36562 v 2.38125 2.38125 h -2.64585 c -2.17545,0 -2.64582,-0.0705 -2.64582,-0.39687 0,-0.3233 0.4402,-0.39688 2.37429,-0.39688 h 2.37429 l -0.0592,-4.63034 -0.0592,-4.63034 2.71198,1.4e-4 c 1.6315,8e-5 2.71198,0.10555 2.71198,0.26472 0,0.15679 -0.97014,0.26458 -2.38125,0.26458 h -2.38125 v 1.97827 1.97826 l 4.69635,0.0722 4.69635,0.0723 0.0754,2.71198 0.0754,2.71198 h -2.39051 -2.3905 v 1.98438 1.98437 h 6.74687 6.74688 v -1.98437 -1.98438 h -2.38125 -2.38125 v -2.80017 c 0,-2.12218 0.0801,-2.77365 0.33073,-2.69063 0.22243,0.0737 0.35576,0.86062 0.40717,2.4033 l 0.0765,2.29375 h 7.00115 c 6.04687,0 7.00116,0.0541 7.00116,0.39688 0,0.33808 -0.70555,0.39687 -4.7625,0.39687 h -4.7625 v 2.38125 2.38125 h -2.24896 -2.24895 v 4.63021 c 0,3.93935 -0.0592,4.63021 -0.39688,4.63021 -0.33766,0 -0.39687,-0.69086 -0.39687,-4.63021 V 116.695 h -9.12813 -9.12812 v 13.75833 13.75834 h 4.77175 4.77176 l -0.0754,2.71198 c -0.0933,3.35532 -0.57408,3.6355 -0.68102,0.39687 l -0.0764,-2.3151 h -8.98552 -8.98553 v 4.63021 c 0,3.93935 -0.0592,4.6302 -0.39688,4.6302 -0.33766,0 -0.39687,-0.69085 -0.39687,-4.6302 v -4.63021 h -1.97408 -1.97407 l -0.0764,2.3151 -0.0765,2.31511 -2.24896,0.0753 -2.24896,0.0753 0.075,6.60828 0.075,6.60828 11.30207,-0.069 11.30207,-0.069 v -1.85208 -1.85208 l -2.31511,-0.0764 -2.31509,-0.0764 v -2.63553 c 0,-3.26773 0.47902,-3.53011 0.585,-0.32043 l 0.0765,2.31511 2.3151,0.0764 2.31511,0.0764 v 2.23866 2.23865 h 20.76979 20.76979 v -4.36562 -4.36563 h -1.85208 -1.85209 v 2.38125 2.38125 h -9.78958 c -6.35,0 -9.78958,-0.093 -9.78958,-0.26458 0,-0.16631 1.71979,-0.26458 4.6302,-0.26458 h 4.63021 l 2.7e-4,-4.43177 2.6e-4,-4.43177 -4.63053,0.0779 c -4.03257,0.0679 -4.63041,0.0252 -4.63041,-0.33073 0,-0.35292 0.63102,-0.40867 4.62588,-0.40867 h 4.62589 l 0.0705,-7.07761 0.0705,-7.0776 0.66146,-0.0401 c 0.3638,-0.022 1.4056,-0.0518 2.31511,-0.0662 l 1.65364,-0.0261 v -4.63021 c 0,-3.93935 0.0592,-4.63021 0.39688,-4.63021 0.33885,0 0.39687,0.73496 0.39687,5.02708 v 5.02709 h -2.38406 -2.38406 l 0.069,11.44323 0.069,11.44323 h 4.23334 4.23333 l 0.0773,-2.05053 0.0773,-2.05052 h -2.39238 -2.39238 v -7.41758 -7.4176 l 2.71198,0.0754 2.71198,0.0754 v 5.00503 c 0,3.76885 -0.0817,5.03227 -0.33073,5.11528 -0.25645,0.0855 -0.33073,-0.96426 -0.33073,-4.6743 v -4.78455 h -1.98437 -1.98438 v 6.74687 6.74688 h 4.63605 4.63605 l -0.072,4.96093 -0.072,4.96094 h -33.02826 c -18.16554,0 -33.07812,-0.0496 -33.13906,-0.11024 z m 4.38711,-7.1658 c 0,-2.17546 0.0706,-2.64583 0.39688,-2.64583 0.32346,0 0.39687,0.4417 0.39687,2.3878 v 2.3878 l 4.29948,-0.0727 4.29948,-0.0727 0.0722,-4.69636 0.0722,-4.69635 h 5.02099 5.02097 v 2.38125 2.38125 h 4.36562 4.36563 v -2.38125 c 0,-1.94028 0.0735,-2.38125 0.39687,-2.38125 0.33811,0 0.39688,0.70684 0.39688,4.77409 v 4.77409 l 1.91823,-0.0777 1.91822,-0.0777 0.0707,-6.68073 0.0707,-6.68073 h -2.38579 -2.38579 v -2.38125 -2.38125 h -4.63021 -4.63021 v -9.525 c 0,-5.23875 -0.0298,-9.6143 -0.0661,-9.72344 -0.0364,-0.10914 2.22581,-0.23077 5.02709,-0.27029 l 5.09323,-0.0719 v 2.65155 2.65155 h -2.38125 -2.38125 v 4.7625 c 0,4.05694 -0.0588,4.7625 -0.39688,4.7625 -0.33885,0 -0.39687,-0.73496 -0.39687,-5.02709 v -5.02708 h 2.38125 2.38125 v -1.98437 -1.98438 h -4.36563 -4.36562 v 8.99583 8.99584 h 4.36562 4.36563 v -2.35629 -2.35629 l 2.3151,0.017 2.3151,0.017 0.0773,-2.0263 0.0773,-2.02629 h -2.39239 c -1.3158,0 -2.39237,-0.10197 -2.39237,-0.22659 0,-0.30577 3.32933,-0.59653 4.55026,-0.3974 0.53811,0.0878 1.87756,0.0753 2.97656,-0.0277 l 1.99818,-0.18725 v -4.59733 -4.59734 l 2.3151,-0.0764 2.3151,-0.0764 0.0765,-2.3151 0.0764,-2.31511 h 4.6199 4.61991 v -4.36562 -4.36563 h -7.01146 -7.01145 v -2.64582 -2.64584 h 4.6302 4.63021 v -1.98437 -1.984375 h -8.99583 -8.99583 v 1.984375 1.98437 h 2.38125 c 1.41111,0 2.38125,0.1078 2.38125,0.26459 0,0.15959 -1.10244,0.26458 -2.77813,0.26458 h -2.77812 v -2.24896 -2.248955 h -6.74688 -6.74687 v 4.619905 4.6199 l -2.3151,0.0765 c -1.82794,0.0604 -2.32261,0.15996 -2.35073,0.47332 -0.0196,0.21828 -0.0494,1.26008 -0.0662,2.3151 l -0.0305,1.91823 h -2.24896 -2.24896 v 6.74688 6.74687 h 1.98437 1.98438 v -4.7625 c 0,-2.92533 0.0998,-4.7625 0.25861,-4.7625 0.15601,0 0.28723,1.86329 0.33073,4.69636 0.11275,7.34223 -0.0543,14.88281 -0.32972,14.88281 -0.14149,0 -0.27834,-2.01062 -0.31966,-4.69636 l -0.0722,-4.69635 -2.31511,-0.0764 -2.3151,-0.0764 v -7.39804 -7.39803 h 2.38125 2.38125 v -1.98437 -1.98438 h -4.7625 -4.7625 v -2.64582 -2.64584 h 2.77812 c 1.6757,0 2.77813,0.105 2.77813,0.26459 0,0.15679 -0.97014,0.26458 -2.38125,0.26458 h -2.38125 v 1.98438 1.98436 h 6.75847 6.75846 l -0.0777,-1.91822 -0.0777,-1.91822 -2.31511,-0.0764 c -1.2733,-0.0421 -2.3151,-0.18624 -2.3151,-0.32044 0,-0.13419 1.0418,-0.27838 2.3151,-0.32042 l 2.31511,-0.0765 0.0777,-1.918232 0.0777,-1.918229 h -9.00742 -9.00743 l -0.0331,4.365631 c -0.0395,5.21287 -0.0178,4.95582 -0.42995,5.09321 -0.25707,0.0857 -0.33072,-1.04363 -0.33072,-5.07117 v -5.181421 h 33.2052 33.20521 v 26.326031 c 0,23.22453 -0.0468,26.32604 -0.39688,26.32604 -0.34689,0 -0.39687,-1.49931 -0.39687,-11.90625 v -11.90625 h -1.85208 c -1.84044,0 -1.85218,0.005 -1.86707,0.7276 -0.008,0.40018 -0.0131,2.54331 -0.0108,4.7625 0.003,3.36178 -0.0603,4.0349 -0.38189,4.0349 -0.32858,0 -0.38606,-1.03741 -0.38606,-6.96736 0,-3.83205 -0.0493,-7.01697 -0.10951,-7.07761 -0.0602,-0.0606 -2.02476,-0.0748 -4.36563,-0.0315 l -4.25611,0.0788 v 4.61757 c 0,3.51771 -0.0788,4.61756 -0.33073,4.61752 -0.25017,-5e-5 -0.35019,-1.22451 -0.41063,-5.02708 l -0.0799,-5.02703 h 4.77626 4.77626 v -4.78455 c 0,-3.70998 0.0743,-4.75981 0.33073,-4.67442 0.25117,0.0836 0.34768,1.80743 0.4012,7.1658 l 0.0705,7.05567 h 1.84776 1.84776 v -13.7586 -13.758325 h -6.61458 -6.61459 v 2.242855 2.24285 l -4.69635,0.0722 -4.69636,0.0722 -0.0777,1.91823 -0.0777,1.91822 h 9.13972 9.13971 v -1.98436 -1.98438 h -2.38125 c -1.41111,0 -2.38125,-0.10779 -2.38125,-0.26458 0,-0.15959 1.10243,-0.26459 2.77813,-0.26459 h 2.77812 v 2.64584 2.64582 h -2.38125 -2.38125 v 4.7625 4.7625 h -4.7625 -4.7625 v 2.39761 2.39761 l -2.3151,-0.0558 -2.31511,-0.0558 -0.0707,6.65402 c -0.0465,4.37381 0.0215,6.65906 0.19843,6.66872 0.14802,0.008 1.0728,0.0214 2.05507,0.0296 l 1.78593,0.0149 0.0722,-4.65983 c 0.0435,-2.80749 0.175,-4.65983 0.33073,-4.65983 0.1621,0 0.25848,2.76249 0.25848,7.40833 0,4.7625 -0.0945,7.40834 -0.26458,7.40834 -0.14637,0 -0.26458,-0.69453 -0.26458,-1.55443 0,-0.85493 -0.0744,-1.9265 -0.16537,-2.38125 l -0.16536,-0.82682 h -1.95131 -1.9513 v 2.38125 2.38125 h -2.64583 c -2.17546,0 -2.64583,-0.0706 -2.64583,-0.39688 0,-0.32346 0.4417,-0.39687 2.3878,-0.39687 h 2.3878 l -0.0727,-4.29948 -0.0727,-4.29948 -1.91822,-0.0777 -1.91823,-0.0777 v 2.39284 2.39284 h -2.38125 -2.38125 v 4.36562 4.36563 h 7.01145 c 6.05602,0 7.01146,0.0541 7.01146,0.39687 0,0.33766 -0.69085,0.39688 -4.63021,0.39688 h -4.6302 v 4.36562 4.36563 h 4.6302 c 2.91042,0 4.63021,0.0983 4.63021,0.26458 0,0.16631 -1.71979,0.26458 -4.63021,0.26458 h -4.6302 v 2.38125 2.38125 h -5.15938 c -3.26319,0 -5.15937,-0.0972 -5.15937,-0.26458 0,-0.15679 0.97014,-0.26458 2.38125,-0.26458 h 2.38125 v -2.11667 -2.11667 h -4.63021 c -4.22569,0 -4.63196,-0.0404 -4.65029,-0.46302 -0.011,-0.25466 -0.003,-1.26669 0.0178,-2.24896 l 0.0378,-1.78593 h -4.52745 -4.52748 l 0.0779,4.63053 0.0779,4.63054 -5.09323,-3.3e-4 -5.09322,-3.3e-4 z"
       id="path1905"
       sodipodi:nodetypes="cssscccssscccssscccccccccccccccccssscccccccccccccccssscccssscccccccccccccccccssccssscccccssscccccccsccccssscccccccccccccccsccccccccccccccsssccccssccccccssscccccccccccccccssscccccccccscccsscccccccccccssscccccccccccscccccccssscccccccccccccccccsscscccccccccccccccccccccccssscccccccssscccccccssssscccccccccccccssscccccccssscccccssscccssscsccsssccssscccscscccccccccccccccccssscccccccccccccccscsssssccccccssscccccccccccssscccssscccssscccscscccccccc"
       inkscape:export-filename="C:\Users\tincho\laberinto2.png"
       inkscape:export-xdpi="99.589996"
       inkscape:export-ydpi="99.589996" />
    <path
       style="fill:#000000;stroke-width:0.264583"
       d="M 68.333666,89.222736 V 60.912327 h 9.789589 9.789581 l 2e-5,5.357809 10e-6,5.35781 -5.225529,-0.0528 -5.225542,-0.0528 -0.0837,-0.67481 -0.0837,-0.6748 h 4.647782 4.647779 v -3.83646 -3.83646 h -8.466661 -8.466669 v 12.96458 12.96459 h 9.128129 9.128121 v 5.42395 c 0,3.1175 -0.10331,5.423965 -0.24294,5.423965 -1.03667,0 -1.07998,-0.19208 -1.07998,-4.790815 v -4.4696 h -8.466661 -8.466669 v 12.964584 12.96458 h 8.466669 8.466661 v -3.83646 -3.83646 h -4.630199 -4.630212 v -5.29166 -5.291674 h 0.79375 0.79375 v 4.633934 4.63392 l 8.400521,-0.0699 8.40052,-0.0699 0.0696,-9.189004 0.0696,-9.18901 9.852304,0.0609 9.8523,0.0609 0.0837,0.72761 0.0837,0.7276 h -9.27799 -9.277984 v 8.466675 8.466669 h 9.128124 9.12812 v 0.65907 0.65908 l -13.69218,0.0685 -13.692184,0.0685 -0.0734,3.77031 -0.0734,3.77031 h 4.63747 4.63747 v 0.79375 0.79375 H 82.753587 68.333786 Z m 36.561074,27.582824 0.0837,-0.72761 9.19798,-0.0696 9.19799,-0.0696 -0.0699,-8.39708 -0.0699,-8.397089 -9.12812,-0.0542 -9.12813,-0.0542 -0.0837,-0.6734 -0.0837,-0.673395 h 9.2325 9.23251 l 0.0338,-8.46667 0.0338,-8.46666 h -9.24873 -9.24875 v -5.29167 -5.29167 h 5.29167 5.29167 l 2.7e-4,0.72761 2.6e-4,0.7276 -4.49811,-0.0782 -4.49826,-0.0782 v 3.98453 3.98453 l 8.40053,-0.0699 8.40052,-0.0699 0.0699,-8.40052 0.0699,-8.40052 h -13.1006 -13.100584 v 9.12813 9.12812 h -9.92188 -9.921871 v -0.65799 -0.65803 l 9.194271,-0.0696 9.19427,-0.0696 0.0696,-9.19427 0.0696,-9.194269 h 14.416354 14.41637 v 28.310409 28.310414 h -9.93945 -9.93945 z"
       id="path1426"
       sodipodi:nodetypes="ccccccccccccccccccccsssccccccccccccccccccccccccccccccccccccccccccccccccccccccccccccccccccccccccccccccccccccccccccccc" />
  </g>
</svg>
