<?xml version="1.0" encoding="UTF-8" standalone="no"?>
<svg
   xmlns:dc="http://purl.org/dc/elements/1.1/"
   xmlns:cc="http://creativecommons.org/ns#"
   xmlns:rdf="http://www.w3.org/1999/02/22-rdf-syntax-ns#"
   xmlns:svg="http://www.w3.org/2000/svg"
   xmlns="http://www.w3.org/2000/svg"
   xmlns:sodipodi="http://sodipodi.sourceforge.net/DTD/sodipodi-0.dtd"
   xmlns:inkscape="http://www.inkscape.org/namespaces/inkscape"
   width="210mm"
   height="297mm"
   viewBox="0 0 210 297"
   version="1.1"
   id="svg8"
   inkscape:version="1.0.2 (e86c870879, 2021-01-15)"
   sodipodi:docname="dibujos.svg">
  <defs
     id="defs2" />
  <sodipodi:namedview
     id="base"
     pagecolor="#ffffff"
     bordercolor="#666666"
     borderopacity="1.0"
     inkscape:pageopacity="0.0"
     inkscape:pageshadow="2"
     inkscape:zoom="0.7"
     inkscape:cx="333.30663"
     inkscape:cy="528.9942"
     inkscape:document-units="mm"
     inkscape:current-layer="layer1"
     inkscape:document-rotation="0"
     showgrid="false"
     inkscape:window-width="1858"
     inkscape:window-height="1016"
     inkscape:window-x="62"
     inkscape:window-y="27"
     inkscape:window-maximized="1" />
  <metadata
     id="metadata5">
    <rdf:RDF>
      <cc:Work
         rdf:about="">
        <dc:format>image/svg+xml</dc:format>
        <dc:type
           rdf:resource="http://purl.org/dc/dcmitype/StillImage" />
        <dc:title></dc:title>
      </cc:Work>
    </rdf:RDF>
  </metadata>
  <g
     inkscape:label="Capa 1"
     inkscape:groupmode="layer"
     id="layer1">
    <g
       id="g919"
       transform="translate(-7.6987041,-78.732724)">
      <g
         id="g902"
         transform="translate(7.4089549,10.120821)" />
      <g
         id="g948"
         inkscape:export-xdpi="94.800003"
         inkscape:export-ydpi="94.800003">
        <g
           id="g855"
           transform="translate(7.4089549,10.120821)">
          <path
             id="rect833"
             style="fill:#ffb55b;fill-opacity:1;stroke-width:0.53;stop-color:#000000"
             d="m 54.11131,106.79968 v 3.97495 H 5.994868 v 16.25586 H 54.11131 v 3.97495 L 74.703852,118.9023 Z" />
          <text
             xml:space="preserve"
             style="font-size:10.5833px;line-height:1.25;font-family:'D-DIN Condensed';-inkscape-font-specification:'D-DIN Condensed, Normal';stroke-width:0.264583"
             x="11.65903"
             y="122.51147"
             id="text842"><tspan
               sodipodi:role="line"
               id="tspan840"
               x="11.65903"
               y="122.51147"
               style="stroke-width:0.264583">Entrada</tspan></text>
        </g>
        <path
           id="path844"
           style="fill:#6db55b;fill-opacity:1;stroke-width:0.53;stop-color:#000000"
           d="m 186.13829,106.79968 v 3.97495 h -48.11644 v 16.25586 h 48.11644 v 3.97495 l 20.59254,-12.10314 z"
           transform="translate(7.4089549,10.120821)" />
        <text
           xml:space="preserve"
           style="font-size:10.5833px;line-height:1.25;font-family:'D-DIN Condensed';-inkscape-font-specification:'D-DIN Condensed, Normal';stroke-width:0.264583"
           x="143.68602"
           y="122.51147"
           id="text848"
           transform="translate(7.4089549,10.120821)"><tspan
             sodipodi:role="line"
             id="tspan846"
             x="143.68602"
             y="122.51147"
             style="stroke-width:0.264583">Salida</tspan></text>
        <g
           transform="matrix(0,0.00758166,0.00758166,0,107.91775,88.900059)"
           id="g865"
           style="fill:#5f2162;fill-opacity:1">
          <path
             d="m 6516.2,3301.5 c -71.1,-34.6 -103.8,-88.4 -176.9,-282.6 -55.7,-146.1 -157.6,-223 -307.6,-234.5 -151.8,-11.5 -251.8,46.1 -361.4,211.4 -101.9,153.8 -148,188.4 -246,190.3 -100,0 -265.3,-84.6 -311.4,-163.4 -53.8,-86.5 -48.1,-169.2 23.1,-307.6 119.2,-232.6 63.4,-436.4 -146.1,-540.2 -107.7,-55.8 -115.3,-55.8 -221.1,-32.7 -59.6,13.5 -146.1,28.8 -194.2,32.7 -161.5,17.3 -263.4,-96.1 -282.6,-321 -11.5,-107.7 -7.7,-115.3 53.8,-176.9 42.3,-40.4 111.5,-80.7 192.2,-107.6 194.2,-63.4 286.4,-178.8 286.4,-357.6 0,-157.6 -61.5,-248 -242.2,-359.5 -163.4,-98 -198,-213.4 -115.3,-376.8 100,-198 217.2,-238.4 407.5,-142.3 63.4,32.7 146.1,63.4 184.5,71.1 144.2,26.9 307.6,-59.6 380.6,-203.8 46.1,-86.5 48.1,-180.7 9.6,-324.9 -50,-186.5 13.5,-303.7 192.2,-357.5 223,-67.3 317.2,-13.5 396,223 75,221.1 255.7,338.3 444.1,286.4 119.2,-30.8 167.2,-71.1 257.6,-213.4 132.8,-205.3 246.3,-236.1 442.3,-113.1 157.6,96.1 180.7,205.7 84.6,409.4 -69.2,144.2 -75,271 -21.1,376.8 73,142.3 190.3,205.7 351.8,188.4 372.9,-38.4 330.6,-42.3 407.5,28.8 50,48.1 76.9,94.2 96.1,174.9 50,194.1 -9.6,294.1 -213.4,363.3 -207.6,69.2 -313.3,192.2 -313.3,367.1 0,136.5 63.4,238.4 211.4,332.6 71.1,46.1 144.2,103.8 161.5,126.9 42.3,61.5 38.4,176.8 -9.6,272.9 -57.7,115.3 -109.6,165.3 -194.2,188.4 -67.3,17.3 -90.4,11.5 -224.9,-50 -228.7,-101.9 -371,-86.5 -495.9,53.8 -98,111.5 -115.3,196.1 -73,376.8 19.2,86.5 28.8,173 21.1,203.8 -21.1,82.7 -107.6,155.7 -226.8,190.3 -134.6,38.6 -144.2,38.6 -226.9,-3.7 z M 6335.5,2161.6 c 236.5,-44.2 457.5,-215.3 561.3,-436.4 46.1,-98 51.9,-132.6 51.9,-321 0,-192.2 -5.8,-221.1 -53.8,-322.9 C 6818,927.4 6679.6,791 6522,716 c -119.2,-55.8 -148,-61.5 -313.3,-61.5 -144.2,1.9 -205.7,9.6 -294.1,46.1 -153.8,61.5 -322.9,221.1 -401.8,380.6 -182.6,371 -15.4,845.8 361.4,1018.8 169.1,76.9 288.3,94.2 461.3,61.6 z"
             id="path859"
             style="fill:#5f2162;fill-opacity:1" />
          <path
             d="m 2254.5,1971.2 c -86.5,-19.2 -155.7,-69.2 -198,-140.3 -32.7,-51.9 -38.4,-98 -38.4,-286.4 0,-123 -9.6,-248 -21.1,-278.7 -65.4,-176.8 -213.4,-290.3 -399.8,-307.6 -146.1,-13.4 -230.7,15.4 -394.1,134.6 -121.1,88.4 -144.2,100 -249.9,105.7 C 809,1206.2 755.2,1175.4 636,1021.7 564.9,931.3 549.5,892.9 541.8,810.2 530.3,669.9 570.6,596.8 720.6,471.9 878.2,341.2 941.7,223.9 941.7,64.4 941.7,-68.2 910.9,-149 826.4,-247 743.7,-339.3 655.3,-383.5 490,-410.4 292,-443.1 238.2,-466.2 174.7,-537.3 c -73.1,-84.6 -88.4,-167.2 -63.4,-340.2 21.1,-142.2 55.8,-205.7 146.1,-272.9 46.1,-36.5 80.7,-40.4 296,-42.3 269.1,0 321,-15.4 442.1,-130.7 80.7,-73.1 115.3,-140.3 136.5,-251.8 26.9,-144.2 -5.8,-249.9 -134.6,-440.2 -113.4,-167.2 -117.3,-176.9 -109.6,-276.8 11.5,-121.1 46.1,-174.9 194.1,-290.3 198,-153.8 359.5,-125 542.1,96.1 125,149.9 244.1,213.4 403.7,215.3 253.8,0 424.8,-151.8 472.9,-424.8 9.6,-59.6 23.1,-138.4 28.8,-173 13.4,-88.4 128.8,-209.5 219.1,-234.5 48.1,-13.5 115.3,-13.5 203.8,0 73,9.6 138.4,19.2 146.1,19.2 28.8,0 134.6,103.8 163.4,161.5 25,46.1 30.8,105.7 26.9,274.9 -3.9,240.3 11.5,301.8 113.4,417.1 117.3,132.6 309.5,192.2 471,148 42.3,-11.5 132.6,-59.6 199.9,-109.6 165.3,-121.1 238.4,-148 344.1,-132.6 96.1,13.5 199.9,98.1 292.2,234.5 44.2,71.1 57.7,109.6 57.7,186.5 0,123 -38.4,186.5 -192.2,321 -211.5,182.6 -267.2,396 -161.5,609.4 86.5,174.9 167.2,223 476.7,280.7 257.6,50 342.2,173 305.7,442.1 -25,173 -75,251.8 -192.2,303.7 -73,32.7 -109.6,34.6 -251.8,25 -101.9,-9.6 -198,-5.8 -244.1,7.7 -121.1,32.7 -232.6,124.9 -290.3,242.2 -44.2,90.4 -50,125 -44.2,244.1 7.7,136.5 11.5,146.1 121.1,301.8 132.6,186.5 155.7,290.3 96.1,415.2 -40.4,86.5 -221.1,232.6 -321,261.4 -138.4,36.5 -199.9,9.6 -369.1,-165.3 -192.2,-199.9 -248,-228.7 -422.9,-228.7 -157.6,0 -257.6,42.3 -353.7,153.8 -76.9,86.5 -94.2,130.7 -130.7,334.5 -30.7,176.9 -80.7,267.2 -178.8,317.2 -59.7,30.5 -252,36.3 -359.6,9.3 z M 2890.8,404.6 c 182.6,-48.1 319.1,-126.9 455.6,-259.5 394.1,-388.3 403.7,-980.4 23.1,-1386 -196.1,-207.6 -424.8,-305.7 -717,-305.7 -292.2,0 -520.9,98 -717,305.7 -292.2,313.3 -359.5,730.5 -174.9,1113 201.7,417.1 688,647.8 1130.2,532.5 z"
             id="path861"
             style="fill:#5f2162;fill-opacity:1" />
          <path
             d="m 8261.7,912.1 c -59.6,-32.7 -80.7,-100 -80.7,-242.2 -1.9,-134.6 -3.8,-142.2 -71.1,-209.5 -105.7,-103.8 -196.1,-109.6 -342.2,-19.2 -142.2,86.5 -223,92.3 -294.1,17.3 -125,-134.6 -125,-213.4 3.9,-330.6 57.5,-52 103.7,-115.5 115.2,-153.9 38.4,-138.4 -53.8,-290.3 -192.2,-317.2 -30.8,-5.8 -82.7,-17.3 -115.3,-23.1 -84.6,-15.4 -134.6,-90.4 -134.6,-203.8 0,-78.8 9.6,-103.8 55.8,-151.9 51.9,-50 69.2,-55.8 188.4,-55.8 149.9,0 236.4,-40.4 284.5,-132.6 48.1,-94.2 36.5,-178.8 -38.4,-288.3 -92.3,-134.6 -92.3,-211.4 5.8,-299.9 111.5,-103.8 190.3,-100 311.4,17.3 103.8,101.9 151.9,126.9 230.7,126.9 119.2,0 249.9,-115.3 249.9,-221.1 0,-96.1 40.4,-182.6 100,-213.4 78.8,-40.4 215.3,-21.2 276.8,40.4 40.4,40.4 46.1,63.4 46.1,194.2 0,144.2 0,148 75,221.1 65.4,67.3 84.6,75 167.2,75 73.1,0 117.3,-15.4 199.9,-67.3 57.7,-36.5 123,-67.3 146.1,-67.3 53.8,0 153.8,82.7 192.2,157.6 42.3,82.7 19.2,149.9 -88.4,251.8 -142.3,134.6 -153.8,267.2 -32.7,388.3 48.1,48.1 86.5,65.4 167.2,76.9 180.7,25 251.8,140.3 190.3,315.3 -30.8,84.6 -111.5,123 -228.8,107.6 -173,-23.1 -307.6,86.5 -307.6,249.9 0,55.8 19.2,107.7 67.3,182.6 100,155.7 86.5,238.4 -55.8,324.9 -103.8,65.3 -151.8,53.8 -280.6,-65.4 C 8965.3,496.7 8951.8,491 8859.5,491 c -88.4,0 -105.7,7.7 -171.1,73 -57.7,57.7 -75,90.4 -86.5,174.9 C 8582.7,885 8530.8,933 8396.2,933 8340.5,933.2 8279,923.6 8261.7,912.1 Z M 8740.3,49 c 186.5,-82.7 294.1,-236.4 309.5,-444 11.5,-165.3 -26.9,-278.7 -138.4,-397.9 -98,-107.6 -201.8,-159.6 -336.4,-171.1 -371,-34.6 -659.3,299.9 -569,655.5 84.6,328.6 424.8,493.9 734.3,357.5 z"
             id="path863"
             style="fill:#5f2162;fill-opacity:1" />
        </g>
        <text
           xml:space="preserve"
           style="font-size:14.6805px;line-height:1.25;font-family:'D-DIN Condensed';-inkscape-font-specification:'D-DIN Condensed, Normal';text-align:center;text-anchor:middle;stroke-width:0.367014"
           x="101.33611"
           y="169.86166"
           id="text885"
           transform="translate(7.4089549,10.120821)"><tspan
             sodipodi:role="line"
             id="tspan883"
             x="101.33611"
             y="169.86166"
             style="text-align:center;text-anchor:middle;stroke-width:0.367014">Programa</tspan></text>
        <rect
           style="fill:none;fill-opacity:1;stroke:none;stroke-width:0.504;stroke-miterlimit:4;stroke-dasharray:none;stroke-opacity:1;stop-color:#000000"
           id="rect887"
           width="216.43457"
           height="107.36662"
           x="5.5545163"
           y="81.196312" />
      </g>
    </g>
  </g>
</svg>
