<?xml version="1.0" encoding="UTF-8" standalone="no"?>
<svg
   width="210mm"
   height="297mm"
   viewBox="0 0 210 297"
   version="1.1"
   id="svg8"
   inkscape:version="1.1.1 (3bf5ae0d25, 2021-09-20)"
   sodipodi:docname="programa.svg"
   xmlns:inkscape="http://www.inkscape.org/namespaces/inkscape"
   xmlns:sodipodi="http://sodipodi.sourceforge.net/DTD/sodipodi-0.dtd"
   xmlns="http://www.w3.org/2000/svg"
   xmlns:svg="http://www.w3.org/2000/svg"
   xmlns:rdf="http://www.w3.org/1999/02/22-rdf-syntax-ns#"
   xmlns:cc="http://creativecommons.org/ns#"
   xmlns:dc="http://purl.org/dc/elements/1.1/">
  <defs
     id="defs2" />
  <sodipodi:namedview
     id="base"
     pagecolor="#ffffff"
     bordercolor="#666666"
     borderopacity="1.0"
     inkscape:pageopacity="0.0"
     inkscape:pageshadow="2"
     inkscape:zoom="0.7"
     inkscape:cx="334.28571"
     inkscape:cy="643.57143"
     inkscape:document-units="mm"
     inkscape:current-layer="layer1"
     inkscape:document-rotation="0"
     showgrid="false"
     inkscape:window-width="931"
     inkscape:window-height="1016"
     inkscape:window-x="26"
     inkscape:window-y="23"
     inkscape:window-maximized="0"
     inkscape:pagecheckerboard="0" />
  <metadata
     id="metadata5">
    <rdf:RDF>
      <cc:Work
         rdf:about="">
        <dc:format>image/svg+xml</dc:format>
        <dc:type
           rdf:resource="http://purl.org/dc/dcmitype/StillImage" />
        <dc:title />
      </cc:Work>
    </rdf:RDF>
  </metadata>
  <g
     inkscape:label="Capa 1"
     inkscape:groupmode="layer"
     id="layer1">
    <g
       id="g919"
       transform="translate(-7.6987041,-78.732724)">
      <g
         id="g902"
         transform="translate(7.4089549,10.120821)" />
      <g
         id="g948"
         inkscape:export-xdpi="94.800003"
         inkscape:export-ydpi="94.800003">
        <g
           id="g855"
           transform="translate(7.4089549,10.120821)">
          <path
             id="rect833"
             style="fill:#ffb55b;fill-opacity:1;stroke-width:0.53;stop-color:#000000"
             d="m 54.11131,106.79968 v 3.97495 H 5.994868 v 16.25586 H 54.11131 v 3.97495 L 74.703852,118.9023 Z" />
          <text
             xml:space="preserve"
             style="font-size:10.5833px;line-height:1.25;font-family:'D-DIN Condensed';-inkscape-font-specification:'D-DIN Condensed, Normal';stroke-width:0.264583"
             x="11.65903"
             y="122.51147"
             id="text842"><tspan
               sodipodi:role="line"
               id="tspan840"
               x="11.65903"
               y="122.51147"
               style="stroke-width:0.264583">Entrada</tspan></text>
        </g>
        <path
           id="path844"
           style="fill:#6db55b;fill-opacity:1;stroke-width:0.53;stop-color:#000000"
           d="m 186.13829,106.79968 v 3.97495 h -48.11644 v 16.25586 h 48.11644 v 3.97495 l 20.59254,-12.10314 z"
           transform="translate(7.4089549,10.120821)" />
        <text
           xml:space="preserve"
           style="font-size:10.5833px;line-height:1.25;font-family:'D-DIN Condensed';-inkscape-font-specification:'D-DIN Condensed, Normal';stroke-width:0.264583"
           x="143.68602"
           y="122.51147"
           id="text848"
           transform="translate(7.4089549,10.120821)"><tspan
             sodipodi:role="line"
             id="tspan846"
             x="143.68602"
             y="122.51147"
             style="stroke-width:0.264583">Salida</tspan></text>
        <g
           transform="matrix(0,0.00758166,0.00758166,0,107.91775,88.900059)"
           id="g865"
           style="fill:#5f2162;fill-opacity:1">
          <path
             d="m 6516.2,3301.5 c -71.1,-34.6 -103.8,-88.4 -176.9,-282.6 -55.7,-146.1 -157.6,-223 -307.6,-234.5 -151.8,-11.5 -251.8,46.1 -361.4,211.4 -101.9,153.8 -148,188.4 -246,190.3 -100,0 -265.3,-84.6 -311.4,-163.4 -53.8,-86.5 -48.1,-169.2 23.1,-307.6 119.2,-232.6 63.4,-436.4 -146.1,-540.2 -107.7,-55.8 -115.3,-55.8 -221.1,-32.7 -59.6,13.5 -146.1,28.8 -194.2,32.7 -161.5,17.3 -263.4,-96.1 -282.6,-321 -11.5,-107.7 -7.7,-115.3 53.8,-176.9 42.3,-40.4 111.5,-80.7 192.2,-107.6 194.2,-63.4 286.4,-178.8 286.4,-357.6 0,-157.6 -61.5,-248 -242.2,-359.5 -163.4,-98 -198,-213.4 -115.3,-376.8 100,-198 217.2,-238.4 407.5,-142.3 63.4,32.7 146.1,63.4 184.5,71.1 144.2,26.9 307.6,-59.6 380.6,-203.8 46.1,-86.5 48.1,-180.7 9.6,-324.9 -50,-186.5 13.5,-303.7 192.2,-357.5 223,-67.3 317.2,-13.5 396,223 75,221.1 255.7,338.3 444.1,286.4 119.2,-30.8 167.2,-71.1 257.6,-213.4 132.8,-205.3 246.3,-236.1 442.3,-113.1 157.6,96.1 180.7,205.7 84.6,409.4 -69.2,144.2 -75,271 -21.1,376.8 73,142.3 190.3,205.7 351.8,188.4 372.9,-38.4 330.6,-42.3 407.5,28.8 50,48.1 76.9,94.2 96.1,174.9 50,194.1 -9.6,294.1 -213.4,363.3 -207.6,69.2 -313.3,192.2 -313.3,367.1 0,136.5 63.4,238.4 211.4,332.6 71.1,46.1 144.2,103.8 161.5,126.9 42.3,61.5 38.4,176.8 -9.6,272.9 -57.7,115.3 -109.6,165.3 -194.2,188.4 -67.3,17.3 -90.4,11.5 -224.9,-50 -228.7,-101.9 -371,-86.5 -495.9,53.8 -98,111.5 -115.3,196.1 -73,376.8 19.2,86.5 28.8,173 21.1,203.8 -21.1,82.7 -107.6,155.7 -226.8,190.3 -134.6,38.6 -144.2,38.6 -226.9,-3.7 z M 6335.5,2161.6 c 236.5,-44.2 457.5,-215.3 561.3,-436.4 46.1,-98 51.9,-132.6 51.9,-321 0,-192.2 -5.8,-221.1 -53.8,-322.9 C 6818,927.4 6679.6,791 6522,716 c -119.2,-55.8 -148,-61.5 -313.3,-61.5 -144.2,1.9 -205.7,9.6 -294.1,46.1 -153.8,61.5 -322.9,221.1 -401.8,380.6 -182.6,371 -15.4,845.8 361.4,1018.8 169.1,76.9 288.3,94.2 461.3,61.6 z"
             id="path859"
             style="fill:#5f2162;fill-opacity:1" />
          <path
             d="m 2254.5,1971.2 c -86.5,-19.2 -155.7,-69.2 -198,-140.3 -32.7,-51.9 -38.4,-98 -38.4,-286.4 0,-123 -9.6,-248 -21.1,-278.7 -65.4,-176.8 -213.4,-290.3 -399.8,-307.6 -146.1,-13.4 -230.7,15.4 -394.1,134.6 -121.1,88.4 -144.2,100 -249.9,105.7 C 809,1206.2 755.2,1175.4 636,1021.7 564.9,931.3 549.5,892.9 541.8,810.2 530.3,669.9 570.6,596.8 720.6,471.9 878.2,341.2 941.7,223.9 941.7,64.4 941.7,-68.2 910.9,-149 826.4,-247 743.7,-339.3 655.3,-383.5 490,-410.4 292,-443.1 238.2,-466.2 174.7,-537.3 c -73.1,-84.6 -88.4,-167.2 -63.4,-340.2 21.1,-142.2 55.8,-205.7 146.1,-272.9 46.1,-36.5 80.7,-40.4 296,-42.3 269.1,0 321,-15.4 442.1,-130.7 80.7,-73.1 115.3,-140.3 136.5,-251.8 26.9,-144.2 -5.8,-249.9 -134.6,-440.2 -113.4,-167.2 -117.3,-176.9 -109.6,-276.8 11.5,-121.1 46.1,-174.9 194.1,-290.3 198,-153.8 359.5,-125 542.1,96.1 125,149.9 244.1,213.4 403.7,215.3 253.8,0 424.8,-151.8 472.9,-424.8 9.6,-59.6 23.1,-138.4 28.8,-173 13.4,-88.4 128.8,-209.5 219.1,-234.5 48.1,-13.5 115.3,-13.5 203.8,0 73,9.6 138.4,19.2 146.1,19.2 28.8,0 134.6,103.8 163.4,161.5 25,46.1 30.8,105.7 26.9,274.9 -3.9,240.3 11.5,301.8 113.4,417.1 117.3,132.6 309.5,192.2 471,148 42.3,-11.5 132.6,-59.6 199.9,-109.6 165.3,-121.1 238.4,-148 344.1,-132.6 96.1,13.5 199.9,98.1 292.2,234.5 44.2,71.1 57.7,109.6 57.7,186.5 0,123 -38.4,186.5 -192.2,321 -211.5,182.6 -267.2,396 -161.5,609.4 86.5,174.9 167.2,223 476.7,280.7 257.6,50 342.2,173 305.7,442.1 -25,173 -75,251.8 -192.2,303.7 -73,32.7 -109.6,34.6 -251.8,25 -101.9,-9.6 -198,-5.8 -244.1,7.7 -121.1,32.7 -232.6,124.9 -290.3,242.2 -44.2,90.4 -50,125 -44.2,244.1 7.7,136.5 11.5,146.1 121.1,301.8 132.6,186.5 155.7,290.3 96.1,415.2 -40.4,86.5 -221.1,232.6 -321,261.4 -138.4,36.5 -199.9,9.6 -369.1,-165.3 -192.2,-199.9 -248,-228.7 -422.9,-228.7 -157.6,0 -257.6,42.3 -353.7,153.8 -76.9,86.5 -94.2,130.7 -130.7,334.5 -30.7,176.9 -80.7,267.2 -178.8,317.2 -59.7,30.5 -252,36.3 -359.6,9.3 z M 2890.8,404.6 c 182.6,-48.1 319.1,-126.9 455.6,-259.5 394.1,-388.3 403.7,-980.4 23.1,-1386 -196.1,-207.6 -424.8,-305.7 -717,-305.7 -292.2,0 -520.9,98 -717,305.7 -292.2,313.3 -359.5,730.5 -174.9,1113 201.7,417.1 688,647.8 1130.2,532.5 z"
             id="path861"
             style="fill:#5f2162;fill-opacity:1" />
          <path
             d="m 8261.7,912.1 c -59.6,-32.7 -80.7,-100 -80.7,-242.2 -1.9,-134.6 -3.8,-142.2 -71.1,-209.5 -105.7,-103.8 -196.1,-109.6 -342.2,-19.2 -142.2,86.5 -223,92.3 -294.1,17.3 -125,-134.6 -125,-213.4 3.9,-330.6 57.5,-52 103.7,-115.5 115.2,-153.9 38.4,-138.4 -53.8,-290.3 -192.2,-317.2 -30.8,-5.8 -82.7,-17.3 -115.3,-23.1 -84.6,-15.4 -134.6,-90.4 -134.6,-203.8 0,-78.8 9.6,-103.8 55.8,-151.9 51.9,-50 69.2,-55.8 188.4,-55.8 149.9,0 236.4,-40.4 284.5,-132.6 48.1,-94.2 36.5,-178.8 -38.4,-288.3 -92.3,-134.6 -92.3,-211.4 5.8,-299.9 111.5,-103.8 190.3,-100 311.4,17.3 103.8,101.9 151.9,126.9 230.7,126.9 119.2,0 249.9,-115.3 249.9,-221.1 0,-96.1 40.4,-182.6 100,-213.4 78.8,-40.4 215.3,-21.2 276.8,40.4 40.4,40.4 46.1,63.4 46.1,194.2 0,144.2 0,148 75,221.1 65.4,67.3 84.6,75 167.2,75 73.1,0 117.3,-15.4 199.9,-67.3 57.7,-36.5 123,-67.3 146.1,-67.3 53.8,0 153.8,82.7 192.2,157.6 42.3,82.7 19.2,149.9 -88.4,251.8 -142.3,134.6 -153.8,267.2 -32.7,388.3 48.1,48.1 86.5,65.4 167.2,76.9 180.7,25 251.8,140.3 190.3,315.3 -30.8,84.6 -111.5,123 -228.8,107.6 -173,-23.1 -307.6,86.5 -307.6,249.9 0,55.8 19.2,107.7 67.3,182.6 100,155.7 86.5,238.4 -55.8,324.9 -103.8,65.3 -151.8,53.8 -280.6,-65.4 C 8965.3,496.7 8951.8,491 8859.5,491 c -88.4,0 -105.7,7.7 -171.1,73 -57.7,57.7 -75,90.4 -86.5,174.9 C 8582.7,885 8530.8,933 8396.2,933 8340.5,933.2 8279,923.6 8261.7,912.1 Z M 8740.3,49 c 186.5,-82.7 294.1,-236.4 309.5,-444 11.5,-165.3 -26.9,-278.7 -138.4,-397.9 -98,-107.6 -201.8,-159.6 -336.4,-171.1 -371,-34.6 -659.3,299.9 -569,655.5 84.6,328.6 424.8,493.9 734.3,357.5 z"
             id="path863"
             style="fill:#5f2162;fill-opacity:1" />
        </g>
        <text
           xml:space="preserve"
           style="font-size:14.6805px;line-height:1.25;font-family:'D-DIN Condensed';-inkscape-font-specification:'D-DIN Condensed, Normal';text-align:center;text-anchor:middle;stroke-width:0.367014"
           x="101.33611"
           y="169.86166"
           id="text885"
           transform="translate(7.4089549,10.120821)"><tspan
             sodipodi:role="line"
             id="tspan883"
             x="101.33611"
             y="169.86166"
             style="text-align:center;text-anchor:middle;stroke-width:0.367014">Programa</tspan></text>
        <rect
           style="fill:none;fill-opacity:1;stroke:none;stroke-width:0.504;stroke-miterlimit:4;stroke-dasharray:none;stroke-opacity:1;stop-color:#000000"
           id="rect887"
           width="216.43457"
           height="107.36662"
           x="5.5545163"
           y="81.196312" />
      </g>
    </g>
    <path
       id="path26"
       style="fill:#ffb55b;fill-opacity:1;stroke-width:0.53;stop-color:#000000"
       d="m 53.890955,172.6218 v 3.97495 H 5.7745129 v 16.25586 H 53.890955 v 3.97495 l 20.592542,-12.10314 z" />
    <text
       xml:space="preserve"
       style="font-size:10.5833px;line-height:1.25;font-family:'D-DIN Condensed';-inkscape-font-specification:'D-DIN Condensed, Normal';stroke-width:0.264583"
       x="11.438675"
       y="188.33359"
       id="text30"><tspan
         sodipodi:role="line"
         id="tspan28"
         x="11.438675"
         y="188.33359"
         style="stroke-width:0.264583">datos</tspan></text>
    <path
       id="path34"
       style="fill:#6db55b;fill-opacity:1;stroke-width:0.53;stop-color:#000000"
       d="m 185.91793,172.6218 v 3.97495 h -48.11644 v 16.25586 h 48.11644 v 3.97495 l 20.59254,-12.10314 z" />
    <text
       xml:space="preserve"
       style="font-size:10.5833px;line-height:1.25;font-family:'D-DIN Condensed';-inkscape-font-specification:'D-DIN Condensed, Normal';stroke-width:0.264583"
       x="143.46567"
       y="188.33359"
       id="text38"><tspan
         sodipodi:role="line"
         id="tspan36"
         x="143.46567"
         y="188.33359"
         style="stroke-width:0.264583">información</tspan></text>
    <path
       d="m 125.31929,194.00497 c -0.26232,-0.53905 -0.67022,-0.78697 -2.14258,-1.34119 -1.10768,-0.4223 -1.69071,-1.19487 -1.7779,-2.33212 -0.0872,-1.1509 0.34952,-1.90906 1.60277,-2.74001 1.16606,-0.77257 1.42838,-1.12209 1.44279,-1.86509 0,-0.75817 -0.64141,-2.01142 -1.23885,-2.36093 -0.65581,-0.40789 -1.28281,-0.36468 -2.33211,0.17514 -1.7635,0.90373 -3.30864,0.48067 -4.09562,-1.10768 -0.42305,-0.81655 -0.42305,-0.87417 -0.24792,-1.67631 0.10235,-0.45187 0.21835,-1.10768 0.24792,-1.47236 0.13117,-1.22444 -0.7286,-1.99701 -2.43371,-2.14258 -0.81655,-0.0872 -0.87417,-0.0584 -1.3412,0.4079 -0.3063,0.3207 -0.61184,0.84535 -0.81578,1.45719 -0.48068,1.47236 -1.3556,2.17139 -2.7112,2.17139 -1.19487,0 -1.88026,-0.46627 -2.72561,-1.83628 -0.743,-1.23884 -1.61793,-1.50117 -2.85677,-0.87416 -1.50117,0.75816 -1.80747,1.64673 -1.07887,3.08952 0.24792,0.48068 0.48068,1.10768 0.53906,1.39882 0.20394,1.09328 -0.45187,2.33212 -1.54515,2.88558 -0.65581,0.34951 -1.37,0.36468 -2.463279,0.0728 -1.413979,-0.37908 -2.30255,0.10236 -2.710443,1.4572 -0.510246,1.69071 -0.102352,2.4049 1.69071,3.00234 1.676302,0.56862 2.564872,1.93863 2.171392,3.36701 -0.23352,0.90373 -0.53906,1.26765 -1.617931,1.95304 -1.556514,1.00684 -1.79003,1.86736 -0.857485,3.35336 0.728597,1.19487 1.559547,1.37001 3.103936,0.64141 1.09327,-0.52465 2.05463,-0.56862 2.85676,-0.15997 1.07887,0.55346 1.55955,1.44279 1.42839,2.66723 -0.29114,2.8272 -0.3207,2.5065 0.21835,3.08952 0.36468,0.37909 0.71419,0.58303 1.32603,0.7286 1.4716,0.37909 2.22977,-0.0728 2.75442,-1.61792 0.52465,-1.57396 1.4572,-2.37534 2.78323,-2.37534 1.03489,0 1.80747,0.48068 2.52166,1.60276 0.34951,0.53906 0.78697,1.09328 0.96211,1.22444 0.46627,0.32071 1.34044,0.29114 2.06904,-0.0728 0.87416,-0.43746 1.25324,-0.83095 1.42838,-1.47236 0.13116,-0.51025 0.0872,-0.68538 -0.37908,-1.70511 -0.77257,-1.73393 -0.65582,-2.8128 0.40789,-3.75975 0.84536,-0.743 1.48676,-0.87417 2.85677,-0.55346 0.65581,0.14557 1.31163,0.21835 1.54514,0.15997 0.62701,-0.15997 1.18047,-0.81578 1.44279,-1.71952 0.29265,-1.02049 0.29265,-1.09327 -0.0281,-1.72028 z m -8.64233,-1.37 c -0.33511,1.79306 -1.63234,3.46861 -3.30864,4.25558 -0.743,0.34952 -1.00533,0.39349 -2.43371,0.39349 -1.4572,0 -1.67631,-0.044 -2.44812,-0.40789 -1.16682,-0.58303 -2.20096,-1.63233 -2.76958,-2.8272 -0.42306,-0.90374 -0.46627,-1.12209 -0.46627,-2.37534 0.0144,-1.09327 0.0728,-1.55955 0.34951,-2.22976 0.46627,-1.16606 1.67631,-2.44812 2.88558,-3.04631 2.8128,-1.38442 6.41257,-0.11676 7.7242,2.74001 0.58303,1.28206 0.71419,2.18579 0.46703,3.49742 z"
       id="path40"
       style="fill:#5f2162;fill-opacity:1;stroke-width:0.00758166" />
    <path
       d="m 115.23341,161.69421 c -0.14557,-0.65581 -0.52465,-1.18046 -1.06371,-1.50117 -0.39349,-0.24792 -0.743,-0.29113 -2.17139,-0.29113 -0.93254,0 -1.88025,-0.0728 -2.113,-0.15997 -1.34044,-0.49585 -2.20096,-1.61793 -2.33212,-3.03115 -0.1016,-1.10768 0.11675,-1.74909 1.02049,-2.98793 0.67022,-0.91814 0.75816,-1.09328 0.80138,-1.89466 0.0584,-1.09328 -0.17514,-1.50117 -1.34044,-2.4049 -0.68538,-0.53906 -0.97652,-0.65582 -1.60352,-0.7142 -1.06371,-0.0872 -1.61793,0.21836 -2.56487,1.3556 -0.99093,1.19487 -1.88026,1.67631 -3.08953,1.67631 -1.005329,0 -1.617927,-0.23352 -2.36093,-0.87417 -0.699787,-0.627 -1.034897,-1.29722 -1.238843,-2.55047 -0.247921,-1.50117 -0.423057,-1.90906 -0.962113,-2.39049 -0.641408,-0.55422 -1.267653,-0.67022 -2.579281,-0.48068 -1.078112,0.15997 -1.559547,0.42306 -2.069035,1.10768 -0.27673,0.34951 -0.306299,0.61184 -0.320704,2.24417 0,2.04023 -0.116757,2.43371 -0.990923,3.35185 -0.554219,0.61184 -1.063707,0.87417 -1.909062,1.0349 -1.093275,0.20395 -1.894657,-0.044 -3.337447,-1.02049 -1.267653,-0.85976 -1.341195,-0.88933 -2.098603,-0.83095 -0.918139,0.0872 -1.326032,0.34951 -2.200956,1.4716 -1.166059,1.50117 -0.947707,2.7256 0.728598,4.11002 1.13649,0.9477 1.617926,1.85068 1.632331,3.06071 0,1.92423 -1.150896,3.22069 -3.220689,3.58537 -0.451867,0.0728 -1.049302,0.17514 -1.311627,0.21835 -0.670219,0.1016 -1.588358,0.97652 -1.7779,1.66114 -0.102352,0.36468 -0.102352,0.87417 0,1.54514 0.07278,0.55347 0.145568,1.04931 0.145568,1.10769 0,0.21835 0.786977,1.02049 1.224438,1.23884 0.349515,0.18954 0.801382,0.23351 2.084199,0.20395 1.821873,-0.0296 2.288145,0.0872 3.16231,0.85976 1.005328,0.88932 1.457195,2.34652 1.122086,3.57096 -0.08719,0.3207 -0.451867,1.00533 -0.83095,1.51557 -0.918139,1.25325 -1.122086,1.80747 -1.005328,2.60885 0.102352,0.7286 0.743761,1.51557 1.777899,2.21536 0.539056,0.33511 0.83095,0.43746 1.41398,0.43746 0.932544,0 1.413979,-0.29113 2.433712,-1.45719 1.384412,-1.60352 3.002338,-2.02582 4.620264,-1.22444 1.326032,0.65581 1.69071,1.26765 2.128172,3.61418 0.379083,1.95303 1.311627,2.59444 3.351852,2.31771 1.311627,-0.18954 1.909062,-0.56862 2.302552,-1.45719 0.24792,-0.55347 0.26232,-0.83095 0.18954,-1.90907 -0.0728,-0.77257 -0.044,-1.50116 0.0584,-1.85068 0.24792,-0.91814 0.94695,-1.76349 1.83628,-2.20096 0.68538,-0.3351 0.9477,-0.37908 1.85068,-0.3351 1.0349,0.0584 1.10768,0.0872 2.28814,0.91813 1.41398,1.00533 2.20096,1.18047 3.14791,0.7286 0.65581,-0.3063 1.76349,-1.6763 1.98185,-2.43371 0.27673,-1.0493 0.0728,-1.51557 -1.25325,-2.79839 -1.51558,-1.4572 -1.73393,-1.88025 -1.73393,-3.20629 0,-1.19487 0.32071,-1.95303 1.16606,-2.68163 0.65581,-0.58303 0.99092,-0.71419 2.53607,-0.99092 1.34119,-0.23276 2.02582,-0.61184 2.4049,-1.3556 0.23124,-0.45263 0.27521,-1.91058 0.0705,-2.72637 z m -11.87743,4.82421 c -0.36468,1.38441 -0.96211,2.41931 -1.96744,3.45421 -2.94396,2.98793 -7.433061,3.06071 -10.508182,0.17513 -1.573953,-1.48676 -2.317713,-3.22069 -2.317713,-5.43605 0,-2.21536 0.743002,-3.94928 2.317713,-5.43605 2.375334,-2.21536 5.538403,-2.7256 8.438388,-1.32603 3.162314,1.52922 4.911404,5.21618 4.037234,8.56879 z"
       id="path42"
       style="fill:#5f2162;fill-opacity:1;stroke-width:0.00758166" />
    <path
       d="m 107.20367,207.23876 c -0.24792,-0.45187 -0.75816,-0.61184 -1.83628,-0.61184 -1.02049,-0.0144 -1.07811,-0.0288 -1.58835,-0.53906 -0.78698,-0.80138 -0.83095,-1.48676 -0.14557,-2.59444 0.65581,-1.07811 0.69979,-1.69071 0.13116,-2.22977 -1.02049,-0.9477 -1.61793,-0.9477 -2.5065,0.0296 -0.39424,0.43595 -0.87568,0.78622 -1.16681,0.87341 -1.049305,0.29114 -2.200959,-0.40789 -2.404906,-1.4572 -0.04397,-0.23351 -0.131162,-0.627 -0.175136,-0.87416 -0.116758,-0.64141 -0.685382,-1.02049 -1.545142,-1.02049 -0.597435,0 -0.786977,0.0728 -1.151655,0.42305 -0.379083,0.39349 -0.423056,0.52466 -0.423056,1.42839 0,1.13649 -0.306299,1.7923 -1.005328,2.15698 -0.714193,0.36468 -1.355601,0.27673 -2.185793,-0.29113 -1.020491,-0.69979 -1.602763,-0.69979 -2.27374,0.044 -0.786976,0.84535 -0.758166,1.44279 0.131163,2.36093 0.772571,0.78697 0.962113,1.15165 0.962113,1.74909 0,0.90373 -0.874166,1.89465 -1.676305,1.89465 -0.728598,0 -1.384411,0.3063 -1.617927,0.75817 -0.306299,0.59744 -0.160731,1.63233 0.306299,2.0986 0.3063,0.3063 0.480678,0.34952 1.472359,0.34952 1.093275,0 1.122086,0 1.676305,0.56862 0.510246,0.49584 0.568624,0.64141 0.568624,1.26766 0,0.55422 -0.116757,0.88933 -0.510245,1.51557 -0.276731,0.43746 -0.510246,0.93254 -0.510246,1.10768 0,0.40789 0.627003,1.16606 1.19487,1.4572 0.627003,0.3207 1.13649,0.14556 1.909062,-0.67022 1.020491,-1.07887 2.025819,-1.16606 2.943958,-0.24792 0.364678,0.36467 0.495841,0.65581 0.58303,1.26765 0.189541,1.37001 1.063707,1.90906 2.390497,1.44279 0.641409,-0.23351 0.932544,-0.84535 0.815787,-1.73468 -0.175137,-1.31163 0.655812,-2.33212 1.894652,-2.33212 0.42306,0 0.81655,0.14557 1.38442,0.51024 1.18046,0.75817 1.80746,0.65582 2.46328,-0.42305 0.49508,-0.78698 0.40789,-1.1509 -0.49584,-2.12742 -0.75817,-0.81578 -0.80138,-0.91814 -0.80138,-1.61792 0,-0.67022 0.0584,-0.80138 0.55346,-1.29723 0.43746,-0.43746 0.68538,-0.56862 1.32603,-0.65581 1.10768,-0.14557 1.4716,-0.53905 1.4716,-1.55955 0.002,-0.42229 -0.0713,-0.88857 -0.15846,-1.01973 z m -6.54373,3.62858 c -0.627,1.41398 -1.792303,2.22977 -3.366256,2.34653 -1.253248,0.0872 -2.113008,-0.20395 -3.016742,-1.04931 -0.815787,-0.743 -1.210033,-1.52997 -1.297222,-2.55047 -0.262326,-2.81279 2.27374,-4.99858 4.969778,-4.31396 2.491332,0.64141 3.744582,3.22069 2.710442,5.56721 z"
       id="path44"
       style="fill:#5f2162;fill-opacity:1;stroke-width:0.00758166" />
    <text
       xml:space="preserve"
       style="font-size:14.6805px;line-height:1.25;font-family:'D-DIN Condensed';-inkscape-font-specification:'D-DIN Condensed, Normal';text-align:center;text-anchor:middle;stroke-width:0.367014"
       x="101.11576"
       y="235.68379"
       id="text50"><tspan
         sodipodi:role="line"
         id="tspan48"
         x="101.11576"
         y="235.68379"
         style="text-align:center;text-anchor:middle;stroke-width:0.367014">procesamiento</tspan></text>
    <rect
       style="fill:none;fill-opacity:1;stroke:none;stroke-width:0.504;stroke-miterlimit:4;stroke-dasharray:none;stroke-opacity:1;stop-color:#000000"
       id="rect52"
       width="216.43457"
       height="107.36662"
       x="-2.0747936"
       y="136.89761" />
  </g>
</svg>
