<?xml version="1.0" encoding="UTF-8" standalone="no"?>
<svg
   xmlns:dc="http://purl.org/dc/elements/1.1/"
   xmlns:cc="http://creativecommons.org/ns#"
   xmlns:rdf="http://www.w3.org/1999/02/22-rdf-syntax-ns#"
   xmlns:svg="http://www.w3.org/2000/svg"
   xmlns="http://www.w3.org/2000/svg"
   xmlns:xlink="http://www.w3.org/1999/xlink"
   xmlns:sodipodi="http://sodipodi.sourceforge.net/DTD/sodipodi-0.dtd"
   xmlns:inkscape="http://www.inkscape.org/namespaces/inkscape"
   width="210mm"
   height="297mm"
   viewBox="0 0 210 297"
   version="1.1"
   id="svg8"
   inkscape:version="1.0.2 (e86c870879, 2021-01-15)"
   sodipodi:docname="tapa.svg"
   inkscape:export-filename="/home/mrtin/tapa.png"
   inkscape:export-xdpi="164.2"
   inkscape:export-ydpi="164.2">
  <defs
     id="defs2">
    <linearGradient
       id="linearGradient1293"
       x1="26.65"
       x2="135.7"
       y1="20.6"
       y2="114.4"
       gradientTransform="matrix(0.5625,0,0,0.568,-9.4,-5.305)"
       gradientUnits="userSpaceOnUse">
      <stop
         style="stop-color:#b98bd4;stop-opacity:1"
         offset="0"
         id="stop1289" />
      <stop
         style="stop-color:#306998"
         offset="1"
         id="stop1291" />
    </linearGradient>
    <linearGradient
       id="vlpb"
       x1="26.65"
       x2="135.7"
       y1="20.6"
       y2="114.4"
       gradientTransform="matrix(0.5625,0,0,0.568,-9.4,-5.305)"
       gradientUnits="userSpaceOnUse">
      <stop
         style="stop-color:#5a9fd4"
         offset="0"
         id="stop1284" />
      <stop
         style="stop-color:#306998"
         offset="1"
         id="stop1286" />
    </linearGradient>
    <linearGradient
       id="vlpc"
       x1="151"
       x2="112"
       y1="192.4"
       y2="137.3"
       gradientTransform="matrix(0.5625,0,0,0.568,-9.4,-5.305)"
       gradientUnits="userSpaceOnUse">
      <stop
         style="stop-color:#ffd43b"
         offset="0"
         id="stop1052" />
      <stop
         style="stop-color:#ffe873"
         offset="1"
         id="stop1054" />
    </linearGradient>
    <linearGradient
       id="vlpb-0"
       x1="26.65"
       x2="135.7"
       y1="20.6"
       y2="114.4"
       gradientTransform="matrix(0.5625,0,0,0.568,-9.4,-5.305)"
       gradientUnits="userSpaceOnUse">
      <stop
         style="stop-color:#5a9fd4"
         offset="0"
         id="stop1057" />
      <stop
         style="stop-color:#306998"
         offset="1"
         id="stop1059" />
    </linearGradient>
    <radialGradient
       id="vlpa"
       cx="61.52"
       cy="132.3"
       r="29.04"
       gradientTransform="matrix(2.383e-8,-0.2964,1.437,4.684e-7,-128.5,150.5)"
       gradientUnits="userSpaceOnUse">
      <stop
         style="stop-color:#b8b8b8;stop-opacity:.498"
         offset="0"
         id="stop1062" />
      <stop
         style="stop-color:#7f7f7f;stop-opacity:0"
         offset="1"
         id="stop1064" />
    </radialGradient>
    <linearGradient
       inkscape:collect="always"
       xlink:href="#linearGradient1293"
       id="linearGradient1128"
       x1="9.3998878e-16"
       y1="148.5"
       x2="210"
       y2="148.5"
       gradientUnits="userSpaceOnUse" />
  </defs>
  <sodipodi:namedview
     id="base"
     pagecolor="#ffffff"
     bordercolor="#666666"
     borderopacity="1.0"
     inkscape:pageopacity="0.0"
     inkscape:pageshadow="2"
     inkscape:zoom="0.49497475"
     inkscape:cx="417.20283"
     inkscape:cy="482.61931"
     inkscape:document-units="mm"
     inkscape:current-layer="layer1"
     inkscape:document-rotation="0"
     showgrid="false"
     inkscape:snap-page="true"
     inkscape:window-width="1858"
     inkscape:window-height="1016"
     inkscape:window-x="62"
     inkscape:window-y="27"
     inkscape:window-maximized="1" />
  <metadata
     id="metadata5">
    <rdf:RDF>
      <cc:Work
         rdf:about="">
        <dc:format>image/svg+xml</dc:format>
        <dc:type
           rdf:resource="http://purl.org/dc/dcmitype/StillImage" />
        <dc:title />
      </cc:Work>
    </rdf:RDF>
  </metadata>
  <g
     inkscape:label="Capa 1"
     inkscape:groupmode="layer"
     id="layer1">
    <rect
       style="fill:url(#linearGradient1128);stroke-width:0.476001;stop-color:#000000;fill-opacity:1;opacity:0.4552359"
       id="rect1116"
       width="210"
       height="297"
       x="0"
       y="0" />
    <g
       id="g1018"
       transform="matrix(1.4656605,0,0,1.4656605,-46.791827,79.900042)">
      <g
         id="g841"
         transform="matrix(0.26458333,0,0,0.26458333,84.299047,114.24344)">
        <path
           fill="#ed1748"
           d="m 32.573,21.326 c 0,5.49 -1.245,8.734 -3.735,11.23 -2.49,2.495 -6.475,4.042 -11.954,4.042 C 11.405,36.598 7.42,35.051 4.93,32.556 2.44,30.06 1.194,26.816 1.194,21.326 V 1.611 H 12.5 v 20.214 c 0,2.046 0.399,2.995 1.146,3.743 0.747,0.749 1.743,1.248 3.238,1.248 1.494,0 2.49,-0.499 3.237,-1.248 0.748,-0.749 1.096,-1.747 1.096,-3.743 V 1.611 h 11.355 v 19.715 z"
           id="path833" />
        <path
           fill="#ed1748"
           d="M 71.422,36.05 H 59.717 L 49.257,16.834 c 0,0 0.249,3.743 0.249,6.238 V 36.05 H 38.549 V 1.611 h 12.202 l 9.962,19.215 c 0,0 -0.249,-3.743 -0.249,-6.239 V 1.611 h 10.958 z"
           id="path835" />
        <path
           fill="#ed1748"
           d="M 108.776,36.05 H 95.825 L 90.347,24.57 H 88.902 V 36.05 H 77.646 V 1.611 h 14.943 c 4.232,0 7.47,0.749 9.96,2.496 2.49,1.747 4.234,4.742 4.234,8.484 0,6.988 -4.234,9.483 -5.729,10.382 z M 94.183,10.745 c -0.498,-0.399 -1.246,-0.649 -2.491,-0.649 h -2.839 v 5.989 h 2.839 c 1.245,0 2.042,-0.25 2.491,-0.599 0.549,-0.4 1.246,-0.899 1.246,-2.396 0,-1.497 -0.748,-1.995 -1.246,-2.345 z"
           id="path837" />
        <path
           fill="#ed1748"
           d="M 144.636,36.05 H 132.931 L 122.472,16.835 c 0,0 0.25,3.743 0.25,6.238 V 36.05 H 111.763 V 1.611 h 12.203 l 9.961,19.215 c 0,0 -0.248,-3.743 -0.248,-6.239 V 1.611 h 10.957 z"
           id="path839" />
      </g>
      <g
         id="g901"
         transform="matrix(0.26458333,0,0,0.26458333,84.299047,114.24344)"
         style="fill:#000000">
        <path
           fill="#ffffff"
           d="m 1.444,60.445 v -5.643 h 1.095 v 5.572 c 0,2.107 1.095,3.272 2.966,3.272 1.789,0 2.926,-1.082 2.926,-3.202 v -5.643 h 1.094 v 5.56 c 0,2.841 -1.622,4.297 -4.047,4.297 -2.398,0.001 -4.034,-1.47 -4.034,-4.213 z"
           id="path843"
           style="fill:#000000" />
        <path
           fill="#ffffff"
           d="m 11.938,57.34 h 1.068 v 1.248 c 0.484,-0.776 1.219,-1.399 2.454,-1.399 1.718,0 2.744,1.164 2.744,2.867 v 4.45 h -1.067 v -4.187 c 0,-1.329 -0.707,-2.161 -1.982,-2.161 -1.233,0 -2.148,0.901 -2.148,2.245 v 4.103 H 11.939 V 57.34 Z"
           id="path845"
           style="fill:#000000" />
        <path
           fill="#ffffff"
           d="m 20.506,54.597 h 1.22 v 1.178 h -1.22 z m 0.069,2.743 h 1.068 v 7.166 h -1.068 z"
           id="path847"
           style="fill:#000000" />
        <path
           fill="#ffffff"
           d="m 23.417,57.34 h 1.177 l 2.413,5.946 2.426,-5.946 h 1.151 l -3.12,7.222 h -0.942 z"
           id="path849"
           style="fill:#000000" />
        <path
           fill="#ffffff"
           d="m 32.9,61.36 c 0.152,1.511 1.261,2.384 2.522,2.384 0.998,0 1.663,-0.403 2.259,-1.012 l 0.666,0.596 c -0.721,0.818 -1.58,1.345 -2.953,1.345 -1.954,0 -3.576,-1.511 -3.576,-3.742 0,-2.08 1.441,-3.742 3.438,-3.742 2.121,0 3.34,1.69 3.34,3.797 0,0.098 0,0.209 -0.013,0.375 H 32.9 Z m 4.616,-0.859 c -0.111,-1.29 -0.887,-2.412 -2.287,-2.412 -1.22,0 -2.177,1.025 -2.329,2.412 z"
           id="path851"
           style="fill:#000000" />
        <path
           fill="#ffffff"
           d="m 40.469,57.34 h 1.068 v 1.871 c 0.526,-1.191 1.566,-2.037 2.924,-1.996 v 1.15 h -0.083 c -1.566,0 -2.841,1.124 -2.841,3.285 v 2.855 h -1.068 z"
           id="path853"
           style="fill:#000000" />
        <path
           fill="#ffffff"
           d="m 45.488,63.591 0.541,-0.762 c 0.776,0.596 1.635,0.915 2.481,0.915 0.873,0 1.483,-0.43 1.483,-1.136 V 62.58 c 0,-0.707 -0.845,-0.999 -1.788,-1.262 -1.108,-0.333 -2.37,-0.693 -2.37,-2.023 v -0.027 c 0,-1.233 1.026,-2.053 2.44,-2.053 0.887,0 1.843,0.305 2.579,0.79 l -0.486,0.806 c -0.666,-0.431 -1.414,-0.694 -2.121,-0.694 -0.846,0 -1.386,0.443 -1.386,1.039 v 0.028 c 0,0.679 0.887,0.942 1.844,1.233 1.109,0.334 2.301,0.764 2.301,2.052 v 0.027 c 0,1.358 -1.123,2.149 -2.551,2.149 -1.04,0.001 -2.149,-0.402 -2.967,-1.054 z"
           id="path855"
           style="fill:#000000" />
        <path
           fill="#ffffff"
           d="m 53.016,54.597 h 1.22 v 1.178 h -1.22 z m 0.068,2.743 h 1.068 v 7.166 h -1.068 z"
           id="path857"
           style="fill:#000000" />
        <path
           fill="#ffffff"
           d="m 56.218,60.943 v -0.026 c 0,-2.329 1.705,-3.729 3.423,-3.729 1.331,0 2.19,0.707 2.745,1.523 v -4.325 h 1.067 v 10.119 h -1.067 v -1.441 c -0.596,0.859 -1.414,1.595 -2.745,1.595 -1.718,0 -3.423,-1.357 -3.423,-3.716 z m 6.211,-0.012 v -0.029 c 0,-1.648 -1.263,-2.757 -2.593,-2.757 -1.386,0 -2.523,1.026 -2.523,2.757 v 0.029 c 0,1.704 1.15,2.771 2.523,2.771 1.33,0 2.593,-1.122 2.593,-2.771 z"
           id="path859"
           style="fill:#000000" />
        <path
           fill="#ffffff"
           d="M 65.299,62.427 V 62.4 c 0,-1.538 1.247,-2.344 3.063,-2.344 0.928,0 1.539,0.126 2.189,0.307 v -0.222 c 0,-1.275 -0.775,-1.94 -2.121,-1.94 -0.845,0 -1.51,0.194 -2.175,0.512 L 65.936,57.84 c 0.79,-0.374 1.553,-0.61 2.606,-0.61 1.012,0 1.789,0.265 2.314,0.791 0.5,0.498 0.749,1.206 0.749,2.106 v 4.38 H 70.551 V 63.44 c -0.499,0.652 -1.316,1.221 -2.578,1.221 -1.344,-0.002 -2.674,-0.751 -2.674,-2.234 z m 5.267,-0.554 v -0.666 c -0.54,-0.152 -1.206,-0.306 -2.093,-0.306 -1.33,0 -2.093,0.569 -2.093,1.442 v 0.028 c 0,0.9 0.846,1.427 1.802,1.427 1.317,10e-4 2.384,-0.776 2.384,-1.925 z"
           id="path861"
           style="fill:#000000" />
        <path
           fill="#ffffff"
           d="m 73.451,60.943 v -0.026 c 0,-2.329 1.705,-3.729 3.423,-3.729 1.331,0 2.191,0.707 2.746,1.523 v -4.325 h 1.067 V 64.505 H 79.62 v -1.441 c -0.596,0.859 -1.415,1.595 -2.746,1.595 -1.719,0 -3.423,-1.357 -3.423,-3.716 z m 6.209,-0.012 v -0.029 c 0,-1.648 -1.261,-2.757 -2.591,-2.757 -1.387,0 -2.522,1.026 -2.522,2.757 v 0.029 c 0,1.704 1.15,2.771 2.522,2.771 1.33,0 2.591,-1.122 2.591,-2.771 z"
           id="path863"
           style="fill:#000000" />
        <path
           fill="#ffffff"
           d="m 87.41,54.803 h 1.026 l 6.114,7.777 v -7.777 h 1.068 v 9.703 h -0.875 l -6.265,-7.955 v 7.955 H 87.41 Z"
           id="path865"
           style="fill:#000000" />
        <path
           fill="#ffffff"
           d="M 97.642,62.427 V 62.4 c 0,-1.538 1.248,-2.344 3.064,-2.344 0.93,0 1.539,0.126 2.189,0.307 v -0.222 c 0,-1.275 -0.775,-1.94 -2.121,-1.94 -0.844,0 -1.51,0.194 -2.176,0.512 L 98.28,57.84 c 0.789,-0.374 1.553,-0.61 2.605,-0.61 1.012,0 1.787,0.265 2.314,0.791 0.5,0.498 0.748,1.206 0.748,2.106 v 4.38 h -1.053 V 63.44 c -0.5,0.652 -1.316,1.221 -2.578,1.221 -1.342,-0.002 -2.674,-0.751 -2.674,-2.234 z m 5.267,-0.554 v -0.666 c -0.541,-0.152 -1.205,-0.306 -2.094,-0.306 -1.33,0 -2.092,0.569 -2.092,1.442 v 0.028 c 0,0.9 0.846,1.427 1.803,1.427 1.315,10e-4 2.383,-0.776 2.383,-1.925 z"
           id="path867"
           style="fill:#000000" />
        <path
           fill="#ffffff"
           d="m 105.767,60.958 v -0.027 c 0,-2.038 1.566,-3.742 3.672,-3.742 1.359,0 2.191,0.554 2.871,1.275 l -0.709,0.747 c -0.566,-0.596 -1.191,-1.081 -2.176,-1.081 -1.453,0 -2.564,1.22 -2.564,2.771 v 0.029 c 0,1.552 1.139,2.786 2.635,2.786 0.93,0 1.623,-0.458 2.189,-1.067 l 0.68,0.637 c -0.721,0.817 -1.58,1.387 -2.926,1.387 -2.106,0 -3.672,-1.705 -3.672,-3.715 z"
           id="path869"
           style="fill:#000000" />
        <path
           fill="#ffffff"
           d="m 114.155,54.597 h 1.219 v 1.178 h -1.219 z m 0.069,2.743 h 1.066 v 7.166 h -1.066 z"
           id="path871"
           style="fill:#000000" />
        <path
           fill="#ffffff"
           d="m 117.329,60.958 v -0.027 c 0,-2.038 1.566,-3.742 3.742,-3.742 2.162,0 3.729,1.69 3.729,3.713 v 0.029 c 0,2.037 -1.594,3.742 -3.756,3.742 -2.148,0 -3.715,-1.691 -3.715,-3.715 z m 6.375,0 v -0.027 c 0,-1.539 -1.15,-2.801 -2.66,-2.801 -1.553,0 -2.621,1.262 -2.621,2.771 v 0.029 c 0,1.538 1.137,2.786 2.648,2.786 1.553,10e-4 2.633,-1.26 2.633,-2.758 z"
           id="path873"
           style="fill:#000000" />
        <path
           fill="#ffffff"
           d="m 126.728,57.34 h 1.068 v 1.248 c 0.484,-0.776 1.219,-1.399 2.453,-1.399 1.719,0 2.744,1.164 2.744,2.867 v 4.45 h -1.066 v -4.187 c 0,-1.329 -0.709,-2.161 -1.982,-2.161 -1.234,0 -2.148,0.901 -2.148,2.245 v 4.103 h -1.068 V 57.34 Z"
           id="path875"
           style="fill:#000000" />
        <path
           fill="#ffffff"
           d="M 134.728,62.427 V 62.4 c 0,-1.538 1.246,-2.344 3.064,-2.344 0.928,0 1.537,0.126 2.189,0.307 v -0.222 c 0,-1.275 -0.777,-1.94 -2.121,-1.94 -0.846,0 -1.51,0.194 -2.178,0.512 l -0.318,-0.873 c 0.791,-0.374 1.553,-0.61 2.607,-0.61 1.012,0 1.787,0.265 2.314,0.791 0.498,0.498 0.748,1.206 0.748,2.106 v 4.38 H 139.98 V 63.44 c -0.5,0.652 -1.316,1.221 -2.58,1.221 -1.342,-0.002 -2.672,-0.751 -2.672,-2.234 z m 5.267,-0.554 v -0.666 c -0.541,-0.152 -1.205,-0.306 -2.094,-0.306 -1.332,0 -2.094,0.569 -2.094,1.442 v 0.028 c 0,0.9 0.846,1.427 1.803,1.427 1.317,10e-4 2.385,-0.776 2.385,-1.925 z"
           id="path877"
           style="fill:#000000" />
        <path
           fill="#ffffff"
           d="m 143.392,54.387 h 1.068 v 10.119 h -1.068 z"
           id="path879"
           style="fill:#000000" />
        <path
           fill="#ffffff"
           d="m 1,77.581 v -0.028 c 0,-2.329 1.705,-3.729 3.424,-3.729 1.331,0 2.19,0.707 2.745,1.525 V 71.025 H 8.236 V 81.143 H 7.168 V 79.702 C 6.572,80.562 5.754,81.296 4.423,81.296 2.705,81.295 1,79.937 1,77.581 Z m 6.209,-0.015 v -0.027 c 0,-1.65 -1.261,-2.76 -2.592,-2.76 -1.386,0 -2.522,1.026 -2.522,2.76 v 0.027 c 0,1.705 1.15,2.772 2.522,2.772 1.332,0.001 2.592,-1.121 2.592,-2.772 z"
           id="path881"
           style="fill:#000000" />
        <path
           fill="#ffffff"
           d="m 11.259,77.996 c 0.153,1.511 1.261,2.384 2.523,2.384 0.998,0 1.663,-0.4 2.259,-1.012 l 0.665,0.597 c -0.72,0.817 -1.58,1.344 -2.952,1.344 -1.954,0 -3.576,-1.51 -3.576,-3.742 0,-2.078 1.441,-3.743 3.438,-3.743 2.121,0 3.34,1.692 3.34,3.799 0,0.097 0,0.208 -0.013,0.374 h -5.684 z m 4.616,-0.859 c -0.11,-1.289 -0.887,-2.411 -2.287,-2.411 -1.22,0 -2.176,1.025 -2.329,2.411 z"
           id="path883"
           style="fill:#000000" />
        <path
           fill="#ffffff"
           d="m 22.96,71.439 h 4.435 c 1.234,0 2.176,0.333 2.828,0.984 0.555,0.554 0.832,1.29 0.832,2.219 v 0.026 c 0,1.566 -0.845,2.551 -2.079,3.009 l 2.37,3.465 h -2.495 l -2.079,-3.104 h -0.028 -1.649 v 3.104 H 22.96 Z m 4.296,4.714 c 1.054,0 1.636,-0.541 1.636,-1.374 v -0.026 c 0,-0.93 -0.624,-1.386 -1.677,-1.386 h -2.121 v 2.786 z"
           id="path885"
           style="fill:#000000" />
        <path
           fill="#ffffff"
           d="m 32.858,73.714 h 2.107 v 7.429 h -2.107 z m 1.705,-3.272 1.816,0.789 -1.774,1.665 h -1.608 z"
           id="path887"
           style="fill:#000000" />
        <path
           fill="#ffffff"
           d="m 36.587,77.47 v -0.027 c 0,-2.135 1.719,-3.868 4.034,-3.868 2.287,0 4.006,1.692 4.006,3.84 v 0.028 c 0,2.135 -1.719,3.866 -4.034,3.866 -2.287,0 -4.006,-1.692 -4.006,-3.839 z m 5.961,0 v -0.027 c 0,-1.095 -0.791,-2.051 -1.955,-2.051 -1.206,0 -1.926,0.913 -1.926,2.022 v 0.028 c 0,1.096 0.79,2.051 1.954,2.051 1.207,0 1.927,-0.915 1.927,-2.023 z"
           id="path889"
           style="fill:#000000" />
        <path
           fill="#ffffff"
           d="m 50.534,71.439 h 1.968 l 4.546,5.975 v -5.975 h 2.107 v 9.703 H 57.339 L 52.64,74.974 v 6.168 h -2.106 z"
           id="path891"
           style="fill:#000000" />
        <path
           fill="#ffffff"
           d="m 60.904,77.47 v -0.027 c 0,-2.121 1.51,-3.868 3.672,-3.868 2.481,0 3.618,1.927 3.618,4.034 0,0.167 -0.014,0.348 -0.028,0.554 h -5.169 c 0.207,0.958 0.873,1.455 1.815,1.455 0.707,0 1.206,-0.221 1.802,-0.763 l 1.206,1.068 c -0.707,0.873 -1.691,1.386 -3.035,1.386 -2.231,0 -3.881,-1.566 -3.881,-3.839 z m 5.239,-0.624 c -0.125,-0.941 -0.678,-1.579 -1.566,-1.579 -0.887,0 -1.44,0.622 -1.607,1.579 z"
           id="path893"
           style="fill:#000000" />
        <path
           fill="#ffffff"
           d="m 69.804,82.612 0.721,-1.581 c 0.776,0.431 1.511,0.68 2.509,0.68 1.442,0 2.121,-0.693 2.121,-2.024 v -0.359 c -0.624,0.763 -1.303,1.206 -2.426,1.206 -1.733,0 -3.299,-1.247 -3.299,-3.466 V 77.04 c 0,-2.218 1.594,-3.466 3.299,-3.466 1.151,0 1.829,0.485 2.397,1.109 v -0.97 h 2.107 v 5.752 c 0,1.316 -0.319,2.302 -0.942,2.924 -0.708,0.708 -1.761,0.999 -3.203,0.999 -1.219,10e-4 -2.341,-0.277 -3.284,-0.776 z m 5.351,-5.545 V 77.04 c 0,-1.012 -0.778,-1.719 -1.816,-1.719 -1.025,0 -1.802,0.707 -1.802,1.719 v 0.027 c 0,1.041 0.762,1.719 1.802,1.719 1.038,0 1.816,-0.707 1.816,-1.719 z"
           id="path895"
           style="fill:#000000" />
        <path
           fill="#ffffff"
           d="m 79.121,73.714 h 2.107 v 1.496 c 0.429,-1.013 1.109,-1.69 2.37,-1.636 v 2.204 h -0.11 c -1.399,0 -2.26,0.832 -2.26,2.62 v 2.744 h -2.107 z"
           id="path897"
           style="fill:#000000" />
        <path
           fill="#ffffff"
           d="m 84.556,77.47 v -0.027 c 0,-2.135 1.718,-3.868 4.033,-3.868 2.288,0 4.007,1.692 4.007,3.84 v 0.028 c 0,2.135 -1.719,3.866 -4.034,3.866 -2.288,0 -4.006,-1.692 -4.006,-3.839 z m 5.96,0 v -0.027 c 0,-1.095 -0.791,-2.051 -1.955,-2.051 -1.207,0 -1.927,0.913 -1.927,2.022 v 0.028 c 0,1.096 0.79,2.051 1.954,2.051 1.206,0 1.928,-0.915 1.928,-2.023 z"
           id="path899"
           style="fill:#000000" />
      </g>
    </g>
    <text
       xml:space="preserve"
       style="font-size:11.8215px;line-height:1.25;font-family:'D-DIN Condensed';-inkscape-font-specification:'D-DIN Condensed, Normal';stroke-width:0.295538"
       x="86.919052"
       y="29.154453"
       id="text1022"><tspan
         sodipodi:role="line"
         x="86.919052"
         y="29.154453"
         style="stroke-width:0.295538"
         id="tspan1024">Mód<tspan
   style="text-align:center;text-anchor:middle;stroke-width:0.295538"
   id="tspan1028">u</tspan>lo 5</tspan></text>
    <text
       xml:space="preserve"
       style="font-size:19.8542px;line-height:1.25;font-family:'D-DIN Condensed';-inkscape-font-specification:'D-DIN Condensed, Normal';text-align:center;text-anchor:middle;stroke-width:0.496358"
       x="105.70974"
       y="57.167076"
       id="text1032"><tspan
         sodipodi:role="line"
         id="tspan1030"
         x="105.70974"
         y="57.167076"
         style="text-align:center;text-anchor:middle;stroke-width:0.496358">Introducción a la </tspan><tspan
         sodipodi:role="line"
         x="105.70974"
         y="81.984825"
         style="text-align:center;text-anchor:middle;stroke-width:0.496358"
         id="tspan1114">programación en</tspan></text>
    <text
       xml:space="preserve"
       style="font-size:8.42719px;line-height:1.25;font-family:'D-DIN Condensed';-inkscape-font-specification:'D-DIN Condensed, Normal';stroke-width:0.21068"
       x="104.9705"
       y="213.87985"
       id="text1038"><tspan
         sodipodi:role="line"
         x="104.9705"
         y="213.87985"
         style="text-align:center;text-anchor:middle;stroke-width:0.21068"
         id="tspan1036">Curso de Ingreso 2022</tspan><tspan
         sodipodi:role="line"
         x="104.9705"
         y="224.41383"
         style="text-align:center;text-anchor:middle;stroke-width:0.21068"
         id="tspan1046">Licenciatura en Sistemas</tspan><tspan
         sodipodi:role="line"
         x="104.9705"
         y="234.94783"
         style="text-align:center;text-anchor:middle;stroke-width:0.21068"
         id="tspan1040">Ingenieria en Computación</tspan><tspan
         sodipodi:role="line"
         x="104.9705"
         y="245.48181"
         style="text-align:center;text-anchor:middle;stroke-width:0.21068"
         id="tspan1042" /></text>
    <g
       id="g1112"
       transform="matrix(0.26458333,0,0,0.26458333,40.702361,100.00323)">
      <path
         d="m 184.6,61.93 c 0,-14.56 -4.152,-22.04 -12.46,-22.45 -3.304,-0.156 -6.531,0.3704 -9.669,1.589 -2.505,0.8967 -4.191,1.784 -5.078,2.68 v 34.76 c 5.312,3.334 10.03,4.883 14.14,4.64 8.704,-0.5751 13.06,-7.642 13.06,-21.22 z m 10.24,0.6043 c 0,7.398 -1.735,13.54 -5.224,18.42 -3.889,5.527 -9.279,8.373 -16.17,8.529 -5.195,0.1657 -10.55,-1.462 -16.05,-4.874 v 31.59 l -8.909,-3.178 v -70.12 c 1.462,-1.793 3.343,-3.334 5.624,-4.64 5.302,-3.09 11.75,-4.679 19.33,-4.757 l 0.1267,0.1267 c 6.93,-0.08773 12.27,2.758 16.02,8.529 3.499,5.293 5.254,12.08 5.254,20.37 z"
         style="fill:#646464"
         id="path1069" />
      <path
         d="m 249.3,83.27 c 0,9.923 -0.9942,16.79 -2.983,20.62 -1.998,3.821 -5.8,6.872 -11.41,9.143 -4.552,1.793 -9.474,2.768 -14.76,2.934 l -1.472,-5.614 c 5.371,-0.731 9.153,-1.462 11.35,-2.193 4.318,-1.462 7.281,-3.704 8.909,-6.706 1.306,-2.447 1.949,-7.115 1.949,-14.03 v -2.32 c -6.092,2.768 -12.48,4.143 -19.15,4.143 -4.386,0 -8.256,-1.374 -11.59,-4.143 -3.743,-3.012 -5.614,-6.833 -5.614,-11.46 v -37.08 l 8.909,-3.051 v 37.32 c 0,3.987 1.287,7.057 3.86,9.211 2.573,2.154 5.907,3.187 9.991,3.109 4.084,-0.08773 8.46,-1.667 13.11,-4.757 v -43.54 h 8.909 v 48.41 z"
         style="fill:#646464"
         id="path1071" />
      <path
         d="m 284.1,89 c -1.062,0.08772 -2.037,0.1267 -2.934,0.1267 -5.039,0 -8.967,-1.199 -11.77,-3.606 -2.797,-2.408 -4.201,-5.731 -4.201,-9.971 v -35.09 h -6.102 v -5.605 h 6.102 v -14.88 l 8.899,-3.168 v 18.05 h 10.01 v 5.605 h -10.01 v 34.85 c 0,3.343 0.8967,5.712 2.69,7.096 1.54,1.14 3.987,1.793 7.32,1.959 v 4.64 z"
         style="fill:#646464"
         id="path1073" />
      <path
         d="m 338,88.27 h -8.909 V 53.88 c 0,-3.499 -0.8188,-6.511 -2.447,-9.026 -1.881,-2.846 -4.493,-4.269 -7.846,-4.269 -4.084,0 -9.192,2.154 -15.32,6.462 v 41.22 h -8.909 V 6.067 L 303.478,3.26 V 40.7 c 5.692,-4.143 11.91,-6.219 18.67,-6.219 4.718,0 8.538,1.589 11.46,4.757 2.934,3.168 4.396,7.115 4.396,11.83 v 37.19 z"
         style="fill:#646464"
         id="path1075" />
      <path
         d="m 385.4,60.53 c 0,-5.595 -1.062,-10.21 -3.178,-13.87 -2.515,-4.454 -6.423,-6.803 -11.71,-7.047 -9.767,0.5653 -14.64,7.564 -14.64,20.98 0,6.15 1.014,11.29 3.061,15.41 2.612,5.254 6.531,7.846 11.76,7.759 9.806,-0.07798 14.71,-7.817 14.71,-23.23 z m 9.757,0.05848 c 0,7.963 -2.037,14.59 -6.102,19.88 -4.474,5.926 -10.65,8.899 -18.54,8.899 -7.817,0 -13.91,-2.973 -18.31,-8.899 -3.987,-5.293 -5.975,-11.92 -5.975,-19.88 0,-7.486 2.154,-13.78 6.462,-18.91 4.552,-5.439 10.54,-8.168 17.93,-8.168 7.398,0 13.42,2.729 18.06,8.168 4.308,5.127 6.462,11.42 6.462,18.91 z"
         style="fill:#646464"
         id="path1077" />
      <path
         d="m 446.2,88.27 h -8.909 V 51.93 c 0,-3.987 -1.199,-7.096 -3.597,-9.338 -2.398,-2.232 -5.595,-3.314 -9.581,-3.226 -4.23,0.07798 -8.256,1.462 -12.08,4.143 v 44.76 h -8.909 v -45.86 c 5.127,-3.733 9.845,-6.17 14.15,-7.31 4.065,-1.062 7.651,-1.589 10.74,-1.589 2.115,0 4.104,0.2047 5.975,0.6141 3.499,0.809 6.345,2.31 8.538,4.513 2.447,2.437 3.665,5.361 3.665,8.782 v 40.85 z"
         style="fill:#646464"
         id="path1079" />
      <path
         d="M 60.51,6.398 C 55.926,6.4193 51.549,6.8102 47.7,7.492 36.35,9.497 34.29,13.692 34.29,21.432 v 10.22 H 61.1 v 3.406 H 34.29 24.23 c -7.792,0 -14.62,4.684 -16.75,13.59 -2.462,10.21 -2.571,16.59 0,27.25 1.906,7.938 6.458,13.59 14.25,13.59 h 9.219 v -12.25 c 0,-8.85 7.657,-16.66 16.75,-16.66 h 26.78 c 7.455,0 13.41,-6.138 13.41,-13.62 v -25.53 c 0,-7.266 -6.13,-12.72 -13.41,-13.94 C 69.873,6.7213 65.094,6.373 60.509,6.394 Z m -14.5,8.219 c 2.77,0 5.031,2.299 5.031,5.125 -2e-6,2.816 -2.262,5.094 -5.031,5.094 -2.779,-10e-7 -5.031,-2.277 -5.031,-5.094 -10e-7,-2.826 2.252,-5.125 5.031,-5.125 z"
         style="fill:url(#vlpb-0)"
         id="path1081" />
      <path
         d="m 91.23,35.05 v 11.91 c 0,9.231 -7.826,17 -16.75,17 H 47.7 c -7.336,0 -13.41,6.278 -13.41,13.62 v 25.53 c 0,7.266 6.319,11.54 13.41,13.62 8.487,2.496 16.63,2.947 26.78,0 6.75,-1.954 13.41,-5.888 13.41,-13.62 V 92.89 H 61.11 v -3.406 h 26.78 13.41 c 7.792,0 10.7,-5.435 13.41,-13.59 2.799,-8.399 2.68,-16.48 0,-27.25 -1.926,-7.757 -5.604,-13.59 -13.41,-13.59 H 91.24 Z M 76.17,99.71 c 2.779,3e-6 5.031,2.277 5.031,5.094 -2e-6,2.826 -2.252,5.125 -5.031,5.125 -2.77,0 -5.031,-2.299 -5.031,-5.125 2e-6,-2.816 2.262,-5.094 5.031,-5.094 z"
         style="fill:url(#vlpc)"
         id="path1083" />
      <path
         d="m 463.6,26.91 h 1.562 v -9.796 h 3.7 V 15.946 H 459.9 v 1.168 h 3.7 v 9.796 m 6.647,0 h 1.334 v -8.947 l 2.896,8.946 h 1.486 l 3.018,-8.916 v 8.917 h 1.456 V 15.95 h -1.926 l -3.298,9.393 -2.813,-9.393 h -2.153 v 10.96"
         style="fill:#646464"
         id="path1085" />
      <path
         transform="matrix(0.7341,0,0,0.8095,16.25,27.01)"
         d="m 110.5,132.3 a 48.95,8.607 0 1 1 -97.9,0 48.95,8.607 0 1 1 97.9,0 z"
         style="opacity:0.4438;fill:url(#vlpa)"
         id="path1087" />
    </g>
    <text
       xml:space="preserve"
       style="font-size:10.5833px;line-height:1.25;font-family:'D-DIN Condensed';-inkscape-font-specification:'D-DIN Condensed, Normal';stroke-width:0.264583"
       x="60.746078"
       y="190.67056"
       id="text907"><tspan
         sodipodi:role="line"
         id="tspan905"
         x="60.746078"
         y="190.67056"
         style="stroke-width:0.264583">Lic. Martín René Vilugrón</tspan></text>
  </g>
</svg>
